<svg xmlns="http://www.w3.org/2000/svg" version="1.1" xmlns:xlink="http://www.w3.org/1999/xlink" xmlns:svgjs="http://svgjs.dev/svgjs" width="1500" height="1500" viewBox="0 0 1500 1500"><rect width="1500" height="1500" fill="#14293a"></rect><g transform="matrix(0.6666666666666666,0,0,0.6666666666666666,248.86554598186814,427.9645161290323)"><svg viewBox="0 0 386 248" data-background-color="#14293a" preserveAspectRatio="xMidYMid meet" height="963" width="1500" xmlns="http://www.w3.org/2000/svg" xmlns:xlink="http://www.w3.org/1999/xlink"><g id="tight-bounds" transform="matrix(1,0,0,1,0.43789925099889615,0.4000000000000057)"><svg viewBox="0 0 385.1242014980022 247.2" height="247.2" width="385.1242014980022"><g><svg viewBox="0 0 395.52 253.87276005947703" height="247.2" width="385.1242014980022"><g transform="matrix(1,0,0,1,0,154.2187707449894)"><svg viewBox="0 0 395.52 99.65398931448763" height="99.65398931448763" width="395.52"><g id="textblocktransform"><svg viewBox="0 0 395.52 99.65398931448763" height="99.65398931448763" width="395.52" id="textblock"><g><svg viewBox="0 0 395.52 69.87985865724382" height="69.87985865724382" width="395.52"><g transform="matrix(1,0,0,1,0,0)"><svg width="395.52" viewBox="1.25 -37.5 282.98 50" height="69.87985865724382" data-palette-color="#e9e4de"><path d="M21.4-9.25L27.4-35 40.75-35 40.75-34.05 38-34.05 38-0.95 40.75-0.95 40.75 0 25.5 0 25.5-0.95 28.25-0.95 28.25-32.2 28.05-32.2 20.55 0 14.3 0 5.5-32.35 5.3-32.35 5.3-0.95 8.05-0.95 8.05 0 1.25 0 1.25-0.95 4-0.95 4-34.05 1.25-34.05 1.25-35 14.75-35 21.4-9.25ZM42.8-22.9L40.75-22.9 40.75-23.8 55.25-23.8 55.25-22.9 52.55-22.9 58-6.3 63.8-22.9 60.45-22.9 60.45-23.8 67.5-23.8 67.5-22.9 65-22.9 55.65 4.05Q54 8.75 51.95 10.63 49.9 12.5 46.95 12.5 44 12.5 42.3 11.15 40.6 9.8 40.6 7.7 40.6 5.6 41.7 4.5 42.8 3.4 44.6 3.4L44.6 3.4Q48.75 3.4 48.75 6.85L48.75 6.85Q48.75 7.6 48.45 8.65L48.45 8.65 46.7 8.65Q46.3 9.8 46.6 10.55 46.9 11.3 47.95 11.3L47.95 11.3Q50 11.3 51.6 9.28 53.2 7.25 54.65 3.1L54.65 3.1 55.75 0 51.35 0 42.8-22.9ZM83.34-0.55L83.34-0.55Q85.84-0.55 87.77-1.9 89.69-3.25 89.69-5.98 89.69-8.7 87.62-10.15 85.55-11.6 81.72-12.68 77.89-13.75 76.17-14.55 74.44-15.35 72.89-16.65L72.89-16.65Q69.8-19.25 69.8-24.7L69.8-24.7Q69.8-29.15 72.97-32.35 76.14-35.55 81.64-35.55L81.64-35.55Q84.3-35.55 87.17-34.77 90.05-34 90.75-34 91.44-34 92-35L92-35 92.55-35 92.89-24.9 92.09-24.9Q89.69-29.25 87.07-31.88 84.44-34.5 81.37-34.5 78.3-34.5 76.59-33.08 74.89-31.65 74.89-29.28 74.89-26.9 76.92-25.63 78.94-24.35 81.89-23.55 84.84-22.75 85.77-22.45 86.69-22.15 88.07-21.63 89.44-21.1 90.32-20.53 91.19-19.95 92.17-19.07 93.14-18.2 93.69-17.15L93.69-17.15Q95.05-14.75 95.05-11.45L95.05-11.45Q95.05-6.05 91.67-2.78 88.3 0.5 82.8 0.5L82.8 0.5Q79.94 0.5 76.27-0.25 72.59-1 72.19-1L72.19-1Q71.5-1 70.84 0.5L70.84 0.5 70.14 0.5 69.64-11.4 70.5-11.4Q72.69-7.05 76.12-3.8 79.55-0.55 83.34-0.55ZM113.74-9.85L113.74-9.85 113.74-14.1Q113.74-18.95 113.22-21.18 112.69-23.4 110.79-23.4L110.79-23.4Q109.69-23.4 109.02-22.78 108.34-22.15 108.04-20.7L108.04-20.7Q107.59-18.45 107.59-13.85L107.59-13.85 107.59-9.95Q107.59-4.5 107.92-3.4 108.24-2.3 108.59-1.6L108.59-1.6Q109.14-0.4 110.74-0.4L110.74-0.4Q112.69-0.4 113.29-2.65L113.29-2.65Q113.74-4.25 113.74-9.85ZM110.64 0.5Q104.39 0.5 101.19-2.7 97.99-5.9 97.99-11.88 97.99-17.85 101.42-21.08 104.84-24.3 111.04-24.3 117.24-24.3 120.29-21.33 123.34-18.35 123.34-12.25L123.34-12.25Q123.34 0.5 110.64 0.5L110.64 0.5ZM124.54-36.6L124.54-37.5 136.79-37.5 136.79-0.9 139.59-0.9 139.59 0 124.74 0 124.74-0.9 127.49-0.9 127.49-36.6 124.54-36.6ZM169.54-0.9L169.54 0 158.14 0 157.59-3.65Q156.79-1.65 155.21-0.58 153.64 0.5 150.54 0.5L150.54 0.5Q142.79 0.5 142.79-7.85L142.79-7.85 142.79-22.9 139.99-22.9 139.99-23.8 152.09-23.8 152.09-6.65Q152.09-3.65 152.51-2.7 152.94-1.75 154.21-1.75 155.49-1.75 156.49-3.3 157.49-4.85 157.49-7.6L157.49-7.6 157.49-22.9 155.19-22.9 155.19-23.8 166.79-23.8 166.79-0.9 169.54-0.9ZM173.04-7.15L173.04-7.15 173.04-22.9 170.29-22.9 170.29-23.8 173.04-23.8 173.04-30.25 182.34-32.55 182.34-23.8 188.84-23.8 188.84-22.9 182.34-22.9 182.34-6.05Q182.34-3.7 182.81-2.6 183.29-1.5 184.79-1.5 186.29-1.5 187.41-3 188.54-4.5 188.89-7.1L188.89-7.1 189.74-7Q189.34-3.55 187.54-1.53 185.74 0.5 181.59 0.5 177.44 0.5 175.24-1.15 173.04-2.8 173.04-7.15ZM197.58-27.25Q194.93-27.25 193.81-28.6 192.68-29.95 192.68-31.95 192.68-33.95 193.91-35.25 195.13-36.55 197.63-36.55 200.13-36.55 201.43-35.38 202.73-34.2 202.73-32.02 202.73-29.85 201.48-28.55 200.23-27.25 197.58-27.25ZM190.03-22.9L190.03-23.8 202.28-23.8 202.28-0.9 205.08-0.9 205.08 0 190.23 0 190.23-0.9 192.98-0.9 192.98-22.9 190.03-22.9ZM222.23-9.85L222.23-9.85 222.23-14.1Q222.23-18.95 221.71-21.18 221.18-23.4 219.28-23.4L219.28-23.4Q218.18-23.4 217.51-22.78 216.83-22.15 216.53-20.7L216.53-20.7Q216.08-18.45 216.08-13.85L216.08-13.85 216.08-9.95Q216.08-4.5 216.41-3.4 216.73-2.3 217.08-1.6L217.08-1.6Q217.63-0.4 219.23-0.4L219.23-0.4Q221.18-0.4 221.78-2.65L221.78-2.65Q222.23-4.25 222.23-9.85ZM219.13 0.5Q212.88 0.5 209.68-2.7 206.48-5.9 206.48-11.88 206.48-17.85 209.91-21.08 213.33-24.3 219.53-24.3 225.73-24.3 228.78-21.33 231.83-18.35 231.83-12.25L231.83-12.25Q231.83 0.5 219.13 0.5L219.13 0.5ZM233.33-22.9L233.33-23.8 245.38-23.8 245.38-19.2Q246.18-21.5 247.83-22.9 249.48-24.3 252.83-24.3L252.83-24.3Q260.58-24.3 260.58-15.95L260.58-15.95 260.58-0.9 263.38-0.9 263.38 0 249.23 0 249.23-0.9 251.28-0.9 251.28-17.15Q251.28-20.15 250.88-21.03 250.48-21.9 249.43-21.9L249.43-21.9Q247.83-21.9 246.6-19.8 245.38-17.7 245.38-14.7L245.38-14.7 245.38-0.9 247.53-0.9 247.53 0 233.33 0 233.33-0.9 236.08-0.9 236.08-22.9 233.33-22.9ZM265.78 0.5L265.18 0.5 265.18-8.45 265.78-8.45Q267.08-4.1 269.28-2.35 271.48-0.6 274.78-0.6L274.78-0.6Q279.88-0.6 279.88-3.85L279.88-3.85Q279.88-5.25 278.63-5.95L278.63-5.95Q276.68-7.05 273.63-7.65L273.63-7.65Q270.23-8.55 267.93-10.05L267.93-10.05Q265.18-11.85 265.18-15.75 265.18-19.65 267.58-21.98 269.98-24.3 273.98-24.3L273.98-24.3Q276.43-24.3 279.03-23.15L279.03-23.15Q279.98-22.75 280.48-22.75 280.98-22.75 281.33-23.1 281.68-23.45 282.18-24.4L282.18-24.4 282.73-24.4 282.73-16.75 282.13-16.75Q279.58-23.25 274.23-23.25L274.23-23.25Q271.88-23.25 270.73-22.43 269.58-21.6 269.58-20.35L269.58-20.35Q269.58-19.6 269.93-19.18 270.28-18.75 270.48-18.55 270.68-18.35 271.13-18.13 271.58-17.9 271.88-17.78 272.18-17.65 272.8-17.45 273.43-17.25 273.73-17.2L273.73-17.2Q277.13-16.35 278.63-15.73 280.13-15.1 281.48-14.2L281.48-14.2Q284.23-12.3 284.23-8.08 284.23-3.85 281.73-1.68 279.23 0.5 274.88 0.5L274.88 0.5Q271.78 0.5 268.88-0.95L268.88-0.95Q268.28-1.35 267.93-1.35L267.93-1.35Q266.83-1.35 265.78 0.5L265.78 0.5Z" opacity="1" transform="matrix(1,0,0,1,0,0)" fill="#e9e4de" class="wordmark-text-0" data-fill-palette-color="primary" id="text-0"></path></svg></g></svg></g><g transform="matrix(1,0,0,1,0,86.3768161696113)"><svg viewBox="0 0 395.52 13.277173144876325" height="13.277173144876325" width="395.52"><g transform="matrix(1,0,0,1,0,0)"><svg width="395.52" viewBox="4.65 -35.25 1392.6599999999999 46.75" height="13.277173144876325" data-palette-color="#e9e4de"><path d="M4.65 0L8.55 0 8.55-34 4.65-34 4.65 0ZM45.16 0L49.06 0 49.06-17.2Q50.26-18.45 51.66-19.43 53.06-20.4 54.54-21 56.01-21.6 57.21-21.6L57.21-21.6Q59.71-21.6 60.64-20 61.56-18.4 61.56-15.9L61.56-15.9 61.56 0 65.51 0 65.51-16.4Q65.51-18.9 64.71-20.83 63.91-22.75 62.24-23.88 60.56-25 57.91-25L57.91-25Q56.31-25 54.61-24.45 52.91-23.9 51.41-22.95 49.91-22 48.76-20.8L48.76-20.8 48.06-24.25 45.16-24.25 45.16 0ZM100.42 0L104.32 0 104.32-17.2Q105.52-18.45 106.92-19.43 108.32-20.4 109.8-21 111.27-21.6 112.47-21.6L112.47-21.6Q114.97-21.6 115.9-20 116.82-18.4 116.82-15.9L116.82-15.9 116.82 0 120.77 0 120.77-16.4Q120.77-18.9 119.97-20.83 119.17-22.75 117.5-23.88 115.82-25 113.17-25L113.17-25Q111.57-25 109.87-24.45 108.17-23.9 106.67-22.95 105.17-22 104.02-20.8L104.02-20.8 103.32-24.25 100.42-24.25 100.42 0ZM165.73 0.65L165.73 0.65Q162.13 0.7 159.53-0.98 156.93-2.65 155.56-5.53 154.18-8.4 154.18-12.2L154.18-12.2Q154.23-15.9 155.66-18.75 157.08-21.6 159.76-23.25 162.43-24.9 166.08-24.9L166.08-24.9Q169.73-24.9 172.33-23.3 174.93-21.7 176.33-18.85 177.73-16 177.73-12.05L177.73-12.05Q177.73-8.35 176.26-5.5 174.78-2.65 172.11-1 169.43 0.65 165.73 0.65ZM165.83-2.7L165.83-2.7Q168.33-2.7 170.08-3.95 171.83-5.2 172.76-7.3 173.68-9.4 173.68-12L173.68-12Q173.68-14.75 172.81-16.9 171.93-19.05 170.26-20.3 168.58-21.55 166.03-21.55L166.03-21.55Q163.58-21.55 161.83-20.3 160.08-19.05 159.16-16.95 158.23-14.85 158.18-12.25L158.18-12.25Q158.18-9.55 159.03-7.38 159.88-5.2 161.61-3.95 163.33-2.7 165.83-2.7ZM217.54 0L221.39 0 230.39-24.25 226.44-24.25 219.49-5.35 212.24-25.05 208.64-23.5 217.54 0ZM265.85-6.9L265.85-6.9Q265.85-8.8 267.13-10.23 268.4-11.65 270.85-11.65L270.85-11.65 277.2-11.65 277.2-6.1Q275.95-4.65 274.2-3.6 272.45-2.55 270.35-2.55L270.35-2.55Q268.8-2.55 267.8-3.2 266.8-3.85 266.33-4.88 265.85-5.9 265.85-6.9ZM263.75-22.75L264.9-19.8Q266.25-20.35 267.88-20.9 269.5-21.45 271.85-21.45L271.85-21.45Q274.75-21.45 275.98-19.8 277.2-18.15 277.2-15.65L277.2-15.65 277.2-14.3 270.95-14.3Q267.05-14.3 264.6-12.38 262.15-10.45 262.15-6.9L262.15-6.9Q262.15-3.7 264.2-1.55 266.25 0.6 270.5 0.6L270.5 0.6Q272.5 0.6 274.53-0.35 276.55-1.3 277.7-2.45L277.7-2.45 278.2 0 281.2 0 281.2-16.7Q281.2-19.1 280-20.95 278.8-22.8 276.68-23.85 274.55-24.9 271.75-24.9L271.75-24.9Q270.75-24.9 269.2-24.63 267.65-24.35 266.18-23.88 264.7-23.4 263.75-22.75L263.75-22.75ZM326.87-20.85L325.62-23.85 321.22-23.85 321.22-31.1 317.22-30 317.22-23.85 313.72-23.85 313.77-20.85 317.22-20.85 317.22-6.3Q317.22-4 318.07-2.45 318.92-0.9 320.47-0.08 322.02 0.75 324.07 0.75L324.07 0.75Q324.77 0.75 325.47 0.63 326.17 0.5 326.77 0.3 327.37 0.1 327.77-0.1L327.77-0.1 326.82-3.2Q326.47-3.05 325.84-2.88 325.22-2.7 324.62-2.7L324.62-2.7Q322.82-2.7 322.02-3.85 321.22-5 321.22-6.85L321.22-6.85 321.22-20.85 326.87-20.85ZM363.43-11.5L381.03-11.5 381.03-11.85Q381.03-15.5 379.95-18.45 378.88-21.4 376.6-23.15 374.33-24.9 370.68-24.9L370.68-24.9Q367.08-24.9 364.55-23.28 362.03-21.65 360.7-18.8 359.38-15.95 359.38-12.2L359.38-12.2Q359.38-8.4 360.78-5.5 362.18-2.6 365-1 367.83 0.6 372.08 0.6L372.08 0.6Q373.88 0.6 375.4 0.28 376.93-0.05 378.25-0.63 379.58-1.2 380.73-1.85L380.73-1.85 379.43-4.75Q377.53-3.8 375.83-3.23 374.13-2.65 372.03-2.65L372.03-2.65Q369.03-2.65 367.18-3.8 365.33-4.95 364.45-6.95 363.58-8.95 363.43-11.5L363.43-11.5ZM377.13-14.2L363.53-14.2Q363.78-16.4 364.6-18.05 365.43-19.7 366.9-20.63 368.38-21.55 370.53-21.55L370.53-21.55Q372.63-21.55 374-20.63 375.38-19.7 376.13-18.05 376.88-16.4 377.13-14.2L377.13-14.2ZM415.74 0L415.74 0Q416.84 0 417.59-0.78 418.34-1.55 418.34-2.7L418.34-2.7Q418.34-3.8 417.59-4.58 416.84-5.35 415.74-5.35L415.74-5.35Q414.54-5.35 413.76-4.58 412.99-3.8 412.99-2.7L412.99-2.7Q412.99-1.55 413.76-0.78 414.54 0 415.74 0ZM493.76 0L497.66 0 497.66-34 493.76-34 493.76 0ZM534.27 0L538.17 0 538.17-17.2Q539.37-18.45 540.77-19.43 542.17-20.4 543.65-21 545.12-21.6 546.32-21.6L546.32-21.6Q548.82-21.6 549.75-20 550.67-18.4 550.67-15.9L550.67-15.9 550.67 0 554.62 0 554.62-16.4Q554.62-18.9 553.82-20.83 553.02-22.75 551.35-23.88 549.67-25 547.02-25L547.02-25Q545.42-25 543.72-24.45 542.02-23.9 540.52-22.95 539.02-22 537.87-20.8L537.87-20.8 537.17-24.25 534.27-24.25 534.27 0ZM600.33-20.85L599.08-23.85 594.68-23.85 594.68-31.1 590.68-30 590.68-23.85 587.18-23.85 587.23-20.85 590.68-20.85 590.68-6.3Q590.68-4 591.53-2.45 592.38-0.9 593.93-0.08 595.48 0.75 597.53 0.75L597.53 0.75Q598.23 0.75 598.93 0.63 599.63 0.5 600.23 0.3 600.83 0.1 601.23-0.1L601.23-0.1 600.28-3.2Q599.93-3.05 599.31-2.88 598.68-2.7 598.08-2.7L598.08-2.7Q596.28-2.7 595.48-3.85 594.68-5 594.68-6.85L594.68-6.85 594.68-20.85 600.33-20.85ZM636.89-11.5L654.49-11.5 654.49-11.85Q654.49-15.5 653.42-18.45 652.34-21.4 650.07-23.15 647.79-24.9 644.14-24.9L644.14-24.9Q640.54-24.9 638.02-23.28 635.49-21.65 634.17-18.8 632.84-15.95 632.84-12.2L632.84-12.2Q632.84-8.4 634.24-5.5 635.64-2.6 638.47-1 641.29 0.6 645.54 0.6L645.54 0.6Q647.34 0.6 648.87 0.28 650.39-0.05 651.72-0.63 653.04-1.2 654.19-1.85L654.19-1.85 652.89-4.75Q650.99-3.8 649.29-3.23 647.59-2.65 645.49-2.65L645.49-2.65Q642.49-2.65 640.64-3.8 638.79-4.95 637.92-6.95 637.04-8.95 636.89-11.5L636.89-11.5ZM650.59-14.2L636.99-14.2Q637.24-16.4 638.07-18.05 638.89-19.7 640.37-20.63 641.84-21.55 643.99-21.55L643.99-21.55Q646.09-21.55 647.47-20.63 648.84-19.7 649.59-18.05 650.34-16.4 650.59-14.2L650.59-14.2ZM707.85 2.6L707.85-24.25 705.45-24.25 703.85-21.05 703.85 2.6Q703.85 5.45 701.83 6.85 699.8 8.25 696.75 8.25L696.75 8.25Q694.35 8.25 692.75 7.68 691.15 7.1 689.65 6.4L689.65 6.4 688.45 9.25Q689.25 9.8 690.38 10.2 691.5 10.6 692.73 10.9 693.95 11.2 695.05 11.35 696.15 11.5 696.9 11.5L696.9 11.5Q700.35 11.5 702.8 10.33 705.25 9.15 706.55 7.15 707.85 5.15 707.85 2.6L707.85 2.6ZM706.25-3.45L705-6.3Q703.6-4.6 702-3.65 700.4-2.7 698.1-2.7L698.1-2.7Q695.6-2.7 693.93-3.93 692.25-5.15 691.43-7.33 690.6-9.5 690.6-12.25L690.6-12.25Q690.6-14.9 691.45-16.98 692.3-19.05 694-20.3 695.7-21.55 698.15-21.55L698.15-21.55Q700.55-21.55 702.13-20.63 703.7-19.7 705.1-18.15L705.1-18.15 706.3-20.85Q705.3-22.1 703.93-23 702.55-23.9 701.05-24.4 699.55-24.9 698.25-24.9L698.25-24.9Q694.65-24.9 692.03-23.28 689.4-21.65 688-18.8 686.6-15.95 686.6-12.2L686.6-12.2Q686.6-8.4 687.95-5.5 689.3-2.6 691.9-0.98 694.5 0.65 698.15 0.65L698.15 0.65Q699.4 0.65 700.9 0.2 702.4-0.25 703.8-1.2 705.2-2.15 706.25-3.45L706.25-3.45ZM743.21 0L747.11 0 747.11-16.7Q748.21-17.8 749.66-18.8 751.11-19.8 752.74-20.45 754.36-21.1 755.76-21.1L755.76-21.1 754.81-24.25Q753.51-24.25 751.99-23.6 750.46-22.95 749.09-22.03 747.71-21.1 746.76-20.35L746.76-20.35 745.56-24.25 743.21-24.25 743.21 0ZM791.23-6.9L791.23-6.9Q791.23-8.8 792.5-10.23 793.78-11.65 796.23-11.65L796.23-11.65 802.58-11.65 802.58-6.1Q801.33-4.65 799.58-3.6 797.83-2.55 795.73-2.55L795.73-2.55Q794.18-2.55 793.18-3.2 792.18-3.85 791.7-4.88 791.23-5.9 791.23-6.9ZM789.13-22.75L790.28-19.8Q791.63-20.35 793.25-20.9 794.88-21.45 797.23-21.45L797.23-21.45Q800.13-21.45 801.35-19.8 802.58-18.15 802.58-15.65L802.58-15.65 802.58-14.3 796.33-14.3Q792.43-14.3 789.98-12.38 787.53-10.45 787.53-6.9L787.53-6.9Q787.53-3.7 789.58-1.55 791.63 0.6 795.88 0.6L795.88 0.6Q797.88 0.6 799.9-0.35 801.93-1.3 803.08-2.45L803.08-2.45 803.58 0 806.58 0 806.58-16.7Q806.58-19.1 805.38-20.95 804.18-22.8 802.05-23.85 799.93-24.9 797.13-24.9L797.13-24.9Q796.13-24.9 794.58-24.63 793.03-24.35 791.55-23.88 790.08-23.4 789.13-22.75L789.13-22.75ZM852.24-20.85L850.99-23.85 846.59-23.85 846.59-31.1 842.59-30 842.59-23.85 839.09-23.85 839.14-20.85 842.59-20.85 842.59-6.3Q842.59-4 843.44-2.45 844.29-0.9 845.84-0.08 847.39 0.75 849.44 0.75L849.44 0.75Q850.14 0.75 850.84 0.63 851.54 0.5 852.14 0.3 852.74 0.1 853.14-0.1L853.14-0.1 852.19-3.2Q851.84-3.05 851.21-2.88 850.59-2.7 849.99-2.7L849.99-2.7Q848.19-2.7 847.39-3.85 846.59-5 846.59-6.85L846.59-6.85 846.59-20.85 852.24-20.85ZM888.8-11.5L906.4-11.5 906.4-11.85Q906.4-15.5 905.32-18.45 904.25-21.4 901.97-23.15 899.7-24.9 896.05-24.9L896.05-24.9Q892.45-24.9 889.92-23.28 887.4-21.65 886.07-18.8 884.75-15.95 884.75-12.2L884.75-12.2Q884.75-8.4 886.15-5.5 887.55-2.6 890.37-1 893.2 0.6 897.45 0.6L897.45 0.6Q899.25 0.6 900.77 0.28 902.3-0.05 903.62-0.63 904.95-1.2 906.1-1.85L906.1-1.85 904.8-4.75Q902.9-3.8 901.2-3.23 899.5-2.65 897.4-2.65L897.4-2.65Q894.4-2.65 892.55-3.8 890.7-4.95 889.82-6.95 888.95-8.95 888.8-11.5L888.8-11.5ZM902.5-14.2L888.9-14.2Q889.15-16.4 889.97-18.05 890.8-19.7 892.27-20.63 893.75-21.55 895.9-21.55L895.9-21.55Q898-21.55 899.37-20.63 900.75-19.7 901.5-18.05 902.25-16.4 902.5-14.2L902.5-14.2ZM941.11 0L941.11 0Q942.21 0 942.96-0.78 943.71-1.55 943.71-2.7L943.71-2.7Q943.71-3.8 942.96-4.58 942.21-5.35 941.11-5.35L941.11-5.35Q939.91-5.35 939.13-4.58 938.36-3.8 938.36-2.7L938.36-2.7Q938.36-1.55 939.13-0.78 939.91 0 941.11 0ZM1018.08-4.75L1017.18-1.65Q1017.88-1.2 1018.98-0.78 1020.08-0.35 1021.43-0.05 1022.78 0.25 1024.11 0.45 1025.43 0.65 1026.48 0.65L1026.48 0.65Q1030.33 0.65 1033.01-0.5 1035.68-1.65 1037.11-3.65 1038.53-5.65 1038.53-8.25L1038.53-8.25Q1038.53-10.1 1037.93-11.53 1037.33-12.95 1036.18-14.1 1035.03-15.25 1033.38-16.25 1031.73-17.25 1029.53-18.2L1029.53-18.2Q1026.58-19.65 1024.53-20.78 1022.48-21.9 1021.46-23.2 1020.43-24.5 1020.43-26.3L1020.43-26.3Q1020.43-28.7 1022.46-30.05 1024.48-31.4 1027.68-31.4L1027.68-31.4Q1029.38-31.4 1030.66-31.13 1031.93-30.85 1032.96-30.45 1033.98-30.05 1034.83-29.65L1034.83-29.65 1036.18-32.7Q1034.58-33.5 1032.28-34.15 1029.98-34.8 1027.48-34.8L1027.48-34.8Q1024.13-34.8 1021.71-33.65 1019.28-32.5 1017.96-30.6 1016.63-28.7 1016.63-26.25L1016.63-26.25Q1016.63-24.5 1017.21-23.05 1017.78-21.6 1018.91-20.38 1020.03-19.15 1021.71-18.13 1023.38-17.1 1025.58-16.1L1025.58-16.1Q1028.53-14.9 1030.53-13.78 1032.53-12.65 1033.56-11.35 1034.58-10.05 1034.58-8.2L1034.58-8.2Q1034.58-6.65 1033.66-5.38 1032.73-4.1 1030.93-3.4 1029.13-2.7 1026.43-2.7L1026.43-2.7Q1024.88-2.7 1023.28-3.03 1021.68-3.35 1020.36-3.85 1019.03-4.35 1018.08-4.75L1018.08-4.75ZM1092.24-24.25L1088.29-24.25 1088.29-7.1Q1087.19-5.9 1085.74-4.88 1084.29-3.85 1082.87-3.28 1081.44-2.7 1080.14-2.7L1080.14-2.7Q1077.69-2.7 1076.74-4.3 1075.79-5.9 1075.79-8.4L1075.79-8.4 1075.79-24.25 1071.89-24.25 1071.89-7.85Q1071.89-5.4 1072.67-3.45 1073.44-1.5 1075.14-0.4 1076.84 0.7 1079.49 0.7L1079.49 0.7Q1081.09 0.7 1082.77 0.15 1084.44-0.4 1085.97-1.38 1087.49-2.35 1088.59-3.5L1088.59-3.5 1089.29 0 1092.24 0 1092.24-24.25ZM1145.5-1.55L1144.25-4.35Q1142.85-3.65 1141.38-3.18 1139.9-2.7 1137.5-2.7L1137.5-2.7Q1135-2.7 1133.28-3.95 1131.55-5.2 1130.7-7.38 1129.85-9.55 1129.85-12.25L1129.85-12.25Q1129.9-14.85 1130.83-16.95 1131.75-19.05 1133.5-20.3 1135.25-21.55 1137.7-21.55L1137.7-21.55Q1140.05-21.55 1141.55-21.03 1143.05-20.5 1144.45-19.9L1144.45-19.9 1145.65-22.65Q1144.65-23.35 1143.18-23.85 1141.7-24.35 1140.25-24.63 1138.8-24.9 1137.8-24.9L1137.8-24.9Q1134.15-24.9 1131.45-23.28 1128.75-21.65 1127.33-18.8 1125.9-15.95 1125.85-12.2L1125.85-12.2Q1125.85-8.4 1127.25-5.5 1128.65-2.6 1131.28-0.98 1133.9 0.65 1137.55 0.65L1137.55 0.65Q1138.6 0.65 1140.05 0.38 1141.5 0.1 1142.98-0.4 1144.45-0.9 1145.5-1.55L1145.5-1.55ZM1197.21-1.55L1195.96-4.35Q1194.56-3.65 1193.09-3.18 1191.61-2.7 1189.21-2.7L1189.21-2.7Q1186.71-2.7 1184.99-3.95 1183.26-5.2 1182.41-7.38 1181.56-9.55 1181.56-12.25L1181.56-12.25Q1181.61-14.85 1182.54-16.95 1183.46-19.05 1185.21-20.3 1186.96-21.55 1189.41-21.55L1189.41-21.55Q1191.76-21.55 1193.26-21.03 1194.76-20.5 1196.16-19.9L1196.16-19.9 1197.36-22.65Q1196.36-23.35 1194.89-23.85 1193.41-24.35 1191.96-24.63 1190.51-24.9 1189.51-24.9L1189.51-24.9Q1185.86-24.9 1183.16-23.28 1180.46-21.65 1179.04-18.8 1177.61-15.95 1177.56-12.2L1177.56-12.2Q1177.56-8.4 1178.96-5.5 1180.36-2.6 1182.99-0.98 1185.61 0.65 1189.26 0.65L1189.26 0.65Q1190.31 0.65 1191.76 0.38 1193.21 0.1 1194.69-0.4 1196.16-0.9 1197.21-1.55L1197.21-1.55ZM1233.32-11.5L1250.92-11.5 1250.92-11.85Q1250.92-15.5 1249.85-18.45 1248.77-21.4 1246.5-23.15 1244.22-24.9 1240.57-24.9L1240.57-24.9Q1236.97-24.9 1234.45-23.28 1231.92-21.65 1230.6-18.8 1229.27-15.95 1229.27-12.2L1229.27-12.2Q1229.27-8.4 1230.67-5.5 1232.07-2.6 1234.9-1 1237.72 0.6 1241.97 0.6L1241.97 0.6Q1243.77 0.6 1245.3 0.28 1246.82-0.05 1248.15-0.63 1249.47-1.2 1250.62-1.85L1250.62-1.85 1249.32-4.75Q1247.42-3.8 1245.72-3.23 1244.02-2.65 1241.92-2.65L1241.92-2.65Q1238.92-2.65 1237.07-3.8 1235.22-4.95 1234.35-6.95 1233.47-8.95 1233.32-11.5L1233.32-11.5ZM1247.02-14.2L1233.42-14.2Q1233.67-16.4 1234.5-18.05 1235.32-19.7 1236.8-20.63 1238.27-21.55 1240.42-21.55L1240.42-21.55Q1242.52-21.55 1243.9-20.63 1245.27-19.7 1246.02-18.05 1246.77-16.4 1247.02-14.2L1247.02-14.2ZM1287.09-11.5L1304.69-11.5 1304.69-11.85Q1304.69-15.5 1303.61-18.45 1302.54-21.4 1300.26-23.15 1297.99-24.9 1294.34-24.9L1294.34-24.9Q1290.74-24.9 1288.21-23.28 1285.69-21.65 1284.36-18.8 1283.04-15.95 1283.04-12.2L1283.04-12.2Q1283.04-8.4 1284.44-5.5 1285.84-2.6 1288.66-1 1291.49 0.6 1295.74 0.6L1295.74 0.6Q1297.54 0.6 1299.06 0.28 1300.59-0.05 1301.91-0.63 1303.24-1.2 1304.39-1.85L1304.39-1.85 1303.09-4.75Q1301.19-3.8 1299.49-3.23 1297.79-2.65 1295.69-2.65L1295.69-2.65Q1292.69-2.65 1290.84-3.8 1288.99-4.95 1288.11-6.95 1287.24-8.95 1287.09-11.5L1287.09-11.5ZM1300.79-14.2L1287.19-14.2Q1287.44-16.4 1288.26-18.05 1289.09-19.7 1290.56-20.63 1292.04-21.55 1294.19-21.55L1294.19-21.55Q1296.29-21.55 1297.66-20.63 1299.04-19.7 1299.79-18.05 1300.54-16.4 1300.79-14.2L1300.79-14.2ZM1354.05-34.75L1354.05-3.9 1355.65 0 1358.05 0 1358.05-35.25 1354.05-34.75ZM1356.45-3.45L1355.2-6.3Q1353.8-4.6 1352.2-3.65 1350.6-2.7 1348.3-2.7L1348.3-2.7Q1345.8-2.7 1344.12-3.93 1342.45-5.15 1341.62-7.33 1340.8-9.5 1340.8-12.25L1340.8-12.25Q1340.8-14.9 1341.65-16.98 1342.5-19.05 1344.2-20.3 1345.9-21.55 1348.35-21.55L1348.35-21.55Q1350.75-21.55 1352.32-20.63 1353.9-19.7 1355.3-18.15L1355.3-18.15 1356.5-20.85Q1355.5-22.1 1354.12-23 1352.75-23.9 1351.25-24.4 1349.75-24.9 1348.45-24.9L1348.45-24.9Q1344.85-24.9 1342.22-23.28 1339.6-21.65 1338.2-18.8 1336.8-15.95 1336.8-12.2L1336.8-12.2Q1336.8-8.4 1338.15-5.5 1339.5-2.6 1342.1-0.98 1344.7 0.65 1348.35 0.65L1348.35 0.65Q1349.6 0.65 1351.1 0.2 1352.6-0.25 1354-1.2 1355.4-2.15 1356.45-3.45L1356.45-3.45ZM1394.71 0L1394.71 0Q1395.81 0 1396.56-0.78 1397.31-1.55 1397.31-2.7L1397.31-2.7Q1397.31-3.8 1396.56-4.58 1395.81-5.35 1394.71-5.35L1394.71-5.35Q1393.51-5.35 1392.73-4.58 1391.96-3.8 1391.96-2.7L1391.96-2.7Q1391.96-1.55 1392.73-0.78 1393.51 0 1394.71 0Z" opacity="1" transform="matrix(1,0,0,1,0,0)" fill="#e9e4de" class="slogan-text-1" data-fill-palette-color="secondary" id="text-1"></path></svg></g></svg></g></svg></g></svg></g><g transform="matrix(1,0,0,1,89.59722437226583,0)"><svg viewBox="0 0 216.32555125546833 137.7218132326219" height="137.7218132326219" width="216.32555125546833"><g><svg xmlns="http://www.w3.org/2000/svg" xmlns:xlink="http://www.w3.org/1999/xlink" version="1.1" x="8" y="0" viewBox="0 0 100 68.749" enable-background="new 0 0 100 68.749" xml:space="preserve" id="icon-0" width="200.32555125546833" height="137.7218132326219" class="icon-icon-0" data-fill-palette-color="accent"><path d="M44.495 59.533C38.376 59.533 32.846 55.93 30.414 54.086 22.809 55.937 17.205 54.813 13.77 50.879 11.296 48.045 10.66 44.414 10.546 41.955 6.009 40.317 0 35.572 0 28.662 0 19.308 5.903 13.724 15.792 13.724 16.604 13.724 17.358 13.763 18.028 13.818 19.406 9.773 22.223 6.48 26.436 4.003 30.954 1.346 35.312 0 39.391 0 45.967 0 50.219 3.42 52.403 5.838 54.823 4.715 57.168 4.149 59.398 4.149 67.332 4.149 71.329 10.923 72.869 14.446 82.068 15.262 86.047 21.399 86.675 27.164 87.366 33.498 84.458 39.594 79.94 42.014 79.79 45.24 78.764 47.889 76.877 49.912 74.339 52.632 70.436 54.011 65.275 54.011H65.274C61.985 54.011 58.841 53.442 56.843 52.983 52.791 58.341 47.975 59.533 44.495 59.533M31.114 47.815C31.843 47.815 32.557 48.082 33.113 48.582 33.164 48.627 38.76 53.551 44.495 53.551 47.924 53.551 50.711 51.732 53.013 47.991A2.996 2.996 0 0 1 56.446 46.702C56.486 46.713 60.812 48.027 65.274 48.027 67.635 48.027 70.807 47.647 72.503 45.829 73.633 44.618 74.117 42.719 73.941 40.183A2.99 2.99 0 0 1 76.277 37.056C79.018 36.448 81.181 31.954 80.73 27.811 80.425 25.023 78.727 20.345 70.772 20.335A2.99 2.99 0 0 1 67.907 18.188C67.886 18.117 65.403 10.13 59.399 10.13 57.548 10.13 55.433 10.836 53.115 12.227A2.994 2.994 0 0 1 48.983 11.156C48.868 10.963 45.82 5.981 39.392 5.981 36.394 5.981 33.056 7.05 29.469 9.16 25.813 11.31 23.827 14.003 23.222 17.634A2.99 2.99 0 0 1 19.624 20.062C19.615 20.06 17.958 19.707 15.794 19.707 11.583 19.707 5.984 20.635 5.984 28.662 5.984 33.428 12.124 36.6 13.596 36.602A2.995 2.995 0 0 1 16.56 39.996C16.556 40.026 16.035 44.399 18.294 46.963 19.488 48.316 21.314 48.974 23.877 48.974 25.708 48.974 27.866 48.622 30.296 47.93 30.564 47.854 30.84 47.815 31.114 47.815" fill="#99abc1" data-fill-palette-color="accent"></path><path d="M89.649 68.749C83.943 68.749 79.299 64.283 79.299 58.796 79.299 53.307 83.943 48.842 89.649 48.842 95.356 48.842 100 53.307 100 58.796 100 64.283 95.356 68.749 89.649 68.749M89.649 54.824C87.241 54.824 85.282 56.605 85.282 58.796 85.282 60.985 87.241 62.767 89.649 62.767S94.017 60.986 94.017 58.796C94.018 56.605 92.059 54.824 89.649 54.824" fill="#99abc1" data-fill-palette-color="accent"></path><polygon points="31.483,41.556 20.882,30.951 31.365,19.543 34.302,22.242 26.404,30.835 34.304,38.736 " fill="#99abc1" data-fill-palette-color="accent"></polygon><polygon points="55.096,41.556 52.276,38.736 60.177,30.835 52.278,22.242 55.215,19.543 65.699,30.951 " fill="#99abc1" data-fill-palette-color="accent"></polygon><rect x="40.676" y="19.526" transform="matrix(0.9068 0.4215 -0.4215 0.9068 16.8501 -15.1379)" width="3.988" height="22.046" fill="#99abc1" data-fill-palette-color="accent"></rect></svg></g></svg></g><g><rect width="84.39932512126694" height="6.301837769724382" y="130.41997546289753" x="305.92277562773415" fill="#99abc1" data-fill-palette-color="accent"></rect><rect width="84.39932512126694" height="6.301837769724382" y="130.41997546289753" x="5.197899250998887" fill="#99abc1" data-fill-palette-color="accent"></rect><rect width="84.39932512126694" height="6.301837769724382" y="117.81629992344877" x="305.92277562773415" fill="#99abc1" data-fill-palette-color="accent"></rect><rect width="84.39932512126694" height="6.301837769724382" y="117.81629992344877" x="5.197899250998887" fill="#99abc1" data-fill-palette-color="accent"></rect></g></svg></g><defs></defs></svg><rect width="385.1242014980022" height="247.2" fill="none" stroke="none" visibility="hidden"></rect></g></svg></g></svg>